<svg xmlns="http://www.w3.org/2000/svg" xmlns:xlink="http://www.w3.org/1999/xlink" width="500" zoomAndPan="magnify" viewBox="0 0 375 374.999991" height="500" preserveAspectRatio="xMidYMid meet" version="1.0"><path fill="#8d1c18" d="M 230.917969 272.601562 C 234.527344 288.273438 229.648438 299.730469 217.238281 303.15625 C 227.828125 272.964844 217.402344 237.910156 191.050781 217.070312 C 191.050781 221.164062 191.023438 224.671875 191.054688 228.183594 C 191.195312 243.066406 186.402344 256.054688 176.246094 267.019531 C 171.105469 272.574219 165.863281 278.042969 160.960938 283.804688 C 148.542969 298.394531 147.34375 311.292969 156.433594 328.023438 C 157.355469 329.710938 159.664062 331.128906 158.191406 333.628906 C 150.085938 330.539062 149.203125 329.671875 139.558594 315.234375 C 135.390625 335.132812 138.953125 351.933594 151.085938 369.570312 C 127.878906 373.375 89.804688 357.40625 73.058594 335.804688 C 47.761719 303.183594 48.03125 266.117188 55.171875 228.113281 C 60.589844 255.953125 79.597656 279.210938 105.558594 288.652344 C 106.378906 284.578125 103.078125 282.628906 101.246094 280.242188 C 72.644531 242.90625 73.308594 202.84375 103.621094 166.777344 C 112.375 156.355469 121.273438 145.898438 131.230469 136.664062 C 167.683594 102.847656 179.398438 60.417969 176.039062 12.398438 C 175.898438 10.339844 176.019531 8.261719 176.019531 4.753906 C 184.054688 11.578125 190.074219 18.882812 196.058594 26.167969 C 216.578125 51.144531 233.074219 78.417969 243.035156 109.367188 C 254.582031 145.277344 252.667969 174.542969 236.179688 213.453125 C 263.8125 210.425781 275.550781 180.46875 267.488281 132.957031 C 268.359375 133.242188 269.363281 133.25 269.707031 133.726562 C 294.570312 168.054688 315.085938 204.429688 322.246094 246.964844 C 332.46875 307.710938 297.324219 357.476562 236.296875 368.765625 C 233.636719 369.257812 230.957031 369.671875 227.558594 370.246094 C 229.632812 365.886719 233.203125 363.714844 236.335938 361.378906 C 250.730469 350.652344 255.585938 336.246094 252.871094 319 C 250.09375 301.40625 242.089844 286.203125 230.917969 272.601562 Z M 230.917969 272.601562 " fill-opacity="1" fill-rule="nonzero"/></svg>