<svg xmlns="http://www.w3.org/2000/svg" xmlns:xlink="http://www.w3.org/1999/xlink" width="500" zoomAndPan="magnify" viewBox="0 0 375 374.999991" height="500" preserveAspectRatio="xMidYMid meet" version="1.0"><defs><g/><clipPath id="f4ffa1aed6"><path d="M 292 123 L 342 123 L 342 188.992188 L 292 188.992188 Z M 292 123 " clip-rule="nonzero"/></clipPath></defs><g clip-path="url(#f4ffa1aed6)"><path fill="#8d1c18" d="M 324.613281 170.765625 C 325.257812 173.558594 324.390625 175.597656 322.179688 176.207031 C 324.0625 170.832031 322.207031 164.59375 317.519531 160.882812 C 317.519531 161.609375 317.511719 162.234375 317.519531 162.859375 C 317.542969 165.511719 316.691406 167.820312 314.882812 169.773438 C 313.96875 170.761719 313.035156 171.734375 312.164062 172.761719 C 309.953125 175.359375 309.738281 177.652344 311.355469 180.632812 C 311.519531 180.933594 311.929688 181.183594 311.667969 181.628906 C 310.226562 181.082031 310.070312 180.925781 308.351562 178.355469 C 307.609375 181.898438 308.246094 184.886719 310.40625 188.027344 C 306.273438 188.707031 299.496094 185.863281 296.515625 182.015625 C 292.011719 176.210938 292.058594 169.613281 293.332031 162.847656 C 294.296875 167.804688 297.679688 171.945312 302.300781 173.625 C 302.445312 172.898438 301.859375 172.550781 301.53125 172.128906 C 296.441406 165.480469 296.558594 158.351562 301.957031 151.929688 C 303.515625 150.074219 305.097656 148.214844 306.871094 146.570312 C 313.359375 140.550781 315.445312 133 314.847656 124.449219 C 314.820312 124.085938 314.84375 123.714844 314.84375 123.089844 C 316.273438 124.304688 317.34375 125.605469 318.410156 126.902344 C 322.0625 131.347656 325 136.203125 326.769531 141.710938 C 328.828125 148.105469 328.484375 153.3125 325.550781 160.238281 C 330.46875 159.699219 332.558594 154.367188 331.125 145.910156 C 331.28125 145.960938 331.457031 145.960938 331.519531 146.046875 C 335.945312 152.15625 339.597656 158.632812 340.871094 166.203125 C 342.691406 177.015625 336.433594 185.875 325.570312 187.882812 C 325.097656 187.972656 324.621094 188.046875 324.015625 188.148438 C 324.386719 187.371094 325.019531 186.984375 325.578125 186.570312 C 328.140625 184.660156 329.003906 182.097656 328.523438 179.027344 C 328.027344 175.894531 326.601562 173.1875 324.613281 170.765625 Z M 324.613281 170.765625 " fill-opacity="1" fill-rule="nonzero"/></g><path stroke-linecap="butt" transform="matrix(0.750948, 0.000000000000000164, -0.000000000000000164, 0.75, 13.711738, 211.405959)" fill="none" stroke-linejoin="miter" d="M -0.00106545 2.000388 L 259.681238 2.000388 " stroke="#ffffff" stroke-width="4" stroke-opacity="1" stroke-miterlimit="4"/><g fill="#ffffff" fill-opacity="1"><g transform="translate(222.391924, 217.512876)"><g><path d="M 13.53125 0 L 9 0 L 7.21875 -3.625 L 5.109375 -3.625 L 5.109375 0 L 1.125 0 L 1.125 -13.421875 L 7.390625 -13.421875 C 9.191406 -13.421875 10.585938 -13.003906 11.578125 -12.171875 C 12.566406 -11.347656 13.0625 -10.175781 13.0625 -8.65625 C 13.0625 -7.675781 12.863281 -6.820312 12.46875 -6.09375 C 12.082031 -5.375 11.523438 -4.804688 10.796875 -4.390625 Z M 5.109375 -10.359375 L 5.109375 -6.6875 L 7.390625 -6.6875 C 7.992188 -6.6875 8.457031 -6.84375 8.78125 -7.15625 C 9.101562 -7.476562 9.265625 -7.941406 9.265625 -8.546875 C 9.265625 -9.128906 9.101562 -9.578125 8.78125 -9.890625 C 8.457031 -10.203125 7.992188 -10.359375 7.390625 -10.359375 Z M 5.109375 -10.359375 "/></g></g></g><g fill="#ffffff" fill-opacity="1"><g transform="translate(236.28299, 217.512876)"><g><path d="M 5.859375 -10.5625 C 7.566406 -10.5625 8.898438 -10.050781 9.859375 -9.03125 C 10.816406 -8.019531 11.296875 -6.628906 11.296875 -4.859375 C 11.296875 -4.597656 11.289062 -4.398438 11.28125 -4.265625 L 4.265625 -4.265625 C 4.421875 -3.773438 4.675781 -3.394531 5.03125 -3.125 C 5.382812 -2.851562 5.804688 -2.71875 6.296875 -2.71875 C 7.109375 -2.71875 7.875 -3.050781 8.59375 -3.71875 L 10.609375 -1.75 C 10.054688 -1.132812 9.390625 -0.664062 8.609375 -0.34375 C 7.828125 -0.0195312 6.953125 0.140625 5.984375 0.140625 C 4.828125 0.140625 3.828125 -0.078125 2.984375 -0.515625 C 2.140625 -0.960938 1.488281 -1.582031 1.03125 -2.375 C 0.582031 -3.175781 0.359375 -4.109375 0.359375 -5.171875 C 0.359375 -6.242188 0.585938 -7.1875 1.046875 -8 C 1.515625 -8.8125 2.160156 -9.441406 2.984375 -9.890625 C 3.816406 -10.335938 4.773438 -10.5625 5.859375 -10.5625 Z M 7.46875 -6.171875 C 7.476562 -6.679688 7.335938 -7.101562 7.046875 -7.4375 C 6.753906 -7.769531 6.375 -7.9375 5.90625 -7.9375 C 5.457031 -7.9375 5.082031 -7.773438 4.78125 -7.453125 C 4.488281 -7.128906 4.289062 -6.703125 4.1875 -6.171875 Z M 7.46875 -6.171875 "/></g></g></g><g fill="#ffffff" fill-opacity="1"><g transform="translate(247.951488, 217.512876)"><g><path d="M 8.5 -6.890625 C 7.082031 -7.617188 5.945312 -7.984375 5.09375 -7.984375 C 4.851562 -7.984375 4.660156 -7.941406 4.515625 -7.859375 C 4.378906 -7.773438 4.3125 -7.648438 4.3125 -7.484375 C 4.3125 -7.296875 4.441406 -7.140625 4.703125 -7.015625 C 4.960938 -6.898438 5.378906 -6.765625 5.953125 -6.609375 C 6.722656 -6.390625 7.359375 -6.171875 7.859375 -5.953125 C 8.367188 -5.734375 8.8125 -5.40625 9.1875 -4.96875 C 9.5625 -4.53125 9.75 -3.96875 9.75 -3.28125 C 9.75 -2.21875 9.328125 -1.375 8.484375 -0.75 C 7.648438 -0.132812 6.546875 0.171875 5.171875 0.171875 C 4.253906 0.171875 3.375 0.046875 2.53125 -0.203125 C 1.695312 -0.453125 0.941406 -0.816406 0.265625 -1.296875 L 1.453125 -3.734375 C 2.109375 -3.316406 2.757812 -3 3.40625 -2.78125 C 4.050781 -2.5625 4.660156 -2.453125 5.234375 -2.453125 C 5.492188 -2.453125 5.703125 -2.492188 5.859375 -2.578125 C 6.015625 -2.660156 6.09375 -2.78125 6.09375 -2.9375 C 6.09375 -3.125 5.96875 -3.273438 5.71875 -3.390625 C 5.46875 -3.515625 5.054688 -3.65625 4.484375 -3.8125 C 3.742188 -4.019531 3.125 -4.226562 2.625 -4.4375 C 2.125 -4.65625 1.6875 -4.984375 1.3125 -5.421875 C 0.945312 -5.859375 0.765625 -6.421875 0.765625 -7.109375 C 0.765625 -8.179688 1.171875 -9.03125 1.984375 -9.65625 C 2.804688 -10.28125 3.878906 -10.59375 5.203125 -10.59375 C 6.804688 -10.59375 8.332031 -10.171875 9.78125 -9.328125 Z M 8.5 -6.890625 "/></g></g></g><g fill="#ffffff" fill-opacity="1"><g transform="translate(258.202132, 217.512876)"><g><path d="M 8.296875 -0.5 C 7.921875 -0.289062 7.46875 -0.125 6.9375 0 C 6.414062 0.113281 5.882812 0.171875 5.34375 0.171875 C 4.226562 0.171875 3.335938 -0.132812 2.671875 -0.75 C 2.015625 -1.363281 1.6875 -2.195312 1.6875 -3.25 L 1.6875 -7.40625 L 0.25 -7.40625 L 0.25 -9.890625 L 1.6875 -9.890625 L 1.6875 -12.78125 L 5.53125 -12.78125 L 5.53125 -9.890625 L 8.109375 -9.890625 L 8.109375 -7.40625 L 5.53125 -7.40625 L 5.53125 -3.84375 C 5.53125 -3.519531 5.609375 -3.273438 5.765625 -3.109375 C 5.921875 -2.941406 6.140625 -2.859375 6.421875 -2.859375 C 6.660156 -2.859375 7.054688 -2.957031 7.609375 -3.15625 Z M 8.296875 -0.5 "/></g></g></g><g fill="#ffffff" fill-opacity="1"><g transform="translate(266.80501, 217.512876)"><g><path d="M 6.078125 -10.578125 C 7.546875 -10.578125 8.691406 -10.238281 9.515625 -9.5625 C 10.335938 -8.894531 10.75 -7.960938 10.75 -6.765625 L 10.75 0 L 6.953125 0 L 6.953125 -1.15625 C 6.628906 -0.726562 6.207031 -0.398438 5.6875 -0.171875 C 5.175781 0.0546875 4.582031 0.171875 3.90625 0.171875 C 2.8125 0.171875 1.953125 -0.125 1.328125 -0.71875 C 0.703125 -1.3125 0.390625 -2.109375 0.390625 -3.109375 C 0.390625 -4.109375 0.726562 -4.878906 1.40625 -5.421875 C 2.09375 -5.972656 3.09375 -6.253906 4.40625 -6.265625 L 6.953125 -6.265625 L 6.953125 -6.296875 C 6.953125 -6.734375 6.796875 -7.070312 6.484375 -7.3125 C 6.179688 -7.5625 5.738281 -7.6875 5.15625 -7.6875 C 4.726562 -7.6875 4.238281 -7.617188 3.6875 -7.484375 C 3.132812 -7.359375 2.578125 -7.175781 2.015625 -6.9375 L 1.046875 -9.5 C 2.816406 -10.21875 4.492188 -10.578125 6.078125 -10.578125 Z M 5.1875 -2.359375 C 5.582031 -2.359375 5.941406 -2.453125 6.265625 -2.640625 C 6.585938 -2.835938 6.816406 -3.097656 6.953125 -3.421875 L 6.953125 -4.375 L 5.1875 -4.375 C 4.40625 -4.375 4.015625 -4.046875 4.015625 -3.390625 C 4.015625 -3.054688 4.117188 -2.800781 4.328125 -2.625 C 4.535156 -2.445312 4.820312 -2.359375 5.1875 -2.359375 Z M 5.1875 -2.359375 "/></g></g></g><g fill="#ffffff" fill-opacity="1"><g transform="translate(278.435182, 217.512876)"><g><path d="M 7.765625 -10.421875 L 11.625 -10.421875 L 11.625 0 L 7.765625 0 L 7.765625 -1.546875 C 7.398438 -0.984375 6.945312 -0.554688 6.40625 -0.265625 C 5.863281 0.0234375 5.25 0.171875 4.5625 0.171875 C 3.832031 0.171875 3.1875 0.0078125 2.625 -0.3125 C 2.070312 -0.632812 1.640625 -1.097656 1.328125 -1.703125 C 1.023438 -2.304688 0.875 -3.007812 0.875 -3.8125 L 0.875 -10.421875 L 4.75 -10.421875 L 4.75 -4.90625 C 4.75 -4.394531 4.875 -3.988281 5.125 -3.6875 C 5.382812 -3.382812 5.726562 -3.234375 6.15625 -3.234375 C 6.644531 -3.242188 7.035156 -3.4375 7.328125 -3.8125 C 7.617188 -4.1875 7.765625 -4.671875 7.765625 -5.265625 Z M 7.765625 -10.421875 "/></g></g></g><g fill="#ffffff" fill-opacity="1"><g transform="translate(291.234128, 217.512876)"><g><path d="M 5.03125 -8.78125 C 5.40625 -9.351562 5.867188 -9.796875 6.421875 -10.109375 C 6.984375 -10.421875 7.613281 -10.578125 8.3125 -10.578125 L 8.3125 -7.09375 C 8.15625 -7.113281 7.929688 -7.125 7.640625 -7.125 C 6.835938 -7.125 6.203125 -6.929688 5.734375 -6.546875 C 5.265625 -6.171875 5.03125 -5.648438 5.03125 -4.984375 L 5.03125 0 L 1.171875 0 L 1.171875 -10.421875 L 5.03125 -10.421875 Z M 5.03125 -8.78125 "/></g></g></g><g fill="#ffffff" fill-opacity="1"><g transform="translate(299.741208, 217.512876)"><g><path d="M 6.078125 -10.578125 C 7.546875 -10.578125 8.691406 -10.238281 9.515625 -9.5625 C 10.335938 -8.894531 10.75 -7.960938 10.75 -6.765625 L 10.75 0 L 6.953125 0 L 6.953125 -1.15625 C 6.628906 -0.726562 6.207031 -0.398438 5.6875 -0.171875 C 5.175781 0.0546875 4.582031 0.171875 3.90625 0.171875 C 2.8125 0.171875 1.953125 -0.125 1.328125 -0.71875 C 0.703125 -1.3125 0.390625 -2.109375 0.390625 -3.109375 C 0.390625 -4.109375 0.726562 -4.878906 1.40625 -5.421875 C 2.09375 -5.972656 3.09375 -6.253906 4.40625 -6.265625 L 6.953125 -6.265625 L 6.953125 -6.296875 C 6.953125 -6.734375 6.796875 -7.070312 6.484375 -7.3125 C 6.179688 -7.5625 5.738281 -7.6875 5.15625 -7.6875 C 4.726562 -7.6875 4.238281 -7.617188 3.6875 -7.484375 C 3.132812 -7.359375 2.578125 -7.175781 2.015625 -6.9375 L 1.046875 -9.5 C 2.816406 -10.21875 4.492188 -10.578125 6.078125 -10.578125 Z M 5.1875 -2.359375 C 5.582031 -2.359375 5.941406 -2.453125 6.265625 -2.640625 C 6.585938 -2.835938 6.816406 -3.097656 6.953125 -3.421875 L 6.953125 -4.375 L 5.1875 -4.375 C 4.40625 -4.375 4.015625 -4.046875 4.015625 -3.390625 C 4.015625 -3.054688 4.117188 -2.800781 4.328125 -2.625 C 4.535156 -2.445312 4.820312 -2.359375 5.1875 -2.359375 Z M 5.1875 -2.359375 "/></g></g></g><g fill="#ffffff" fill-opacity="1"><g transform="translate(311.37138, 217.512876)"><g><path d="M 8.359375 -10.578125 C 9.097656 -10.578125 9.75 -10.410156 10.3125 -10.078125 C 10.882812 -9.753906 11.328125 -9.289062 11.640625 -8.6875 C 11.953125 -8.09375 12.109375 -7.398438 12.109375 -6.609375 L 12.109375 0 L 8.234375 0 L 8.234375 -5.5 C 8.234375 -6.007812 8.09375 -6.414062 7.8125 -6.71875 C 7.539062 -7.03125 7.1875 -7.1875 6.75 -7.1875 C 6.21875 -7.175781 5.796875 -6.984375 5.484375 -6.609375 C 5.179688 -6.234375 5.03125 -5.75 5.03125 -5.15625 L 5.03125 0 L 1.171875 0 L 1.171875 -10.421875 L 5.03125 -10.421875 L 5.03125 -8.8125 C 5.40625 -9.382812 5.867188 -9.820312 6.421875 -10.125 C 6.984375 -10.425781 7.628906 -10.578125 8.359375 -10.578125 Z M 8.359375 -10.578125 "/></g></g></g><g fill="#ffffff" fill-opacity="1"><g transform="translate(324.361922, 217.512876)"><g><path d="M 8.296875 -0.5 C 7.921875 -0.289062 7.46875 -0.125 6.9375 0 C 6.414062 0.113281 5.882812 0.171875 5.34375 0.171875 C 4.226562 0.171875 3.335938 -0.132812 2.671875 -0.75 C 2.015625 -1.363281 1.6875 -2.195312 1.6875 -3.25 L 1.6875 -7.40625 L 0.25 -7.40625 L 0.25 -9.890625 L 1.6875 -9.890625 L 1.6875 -12.78125 L 5.53125 -12.78125 L 5.53125 -9.890625 L 8.109375 -9.890625 L 8.109375 -7.40625 L 5.53125 -7.40625 L 5.53125 -3.84375 C 5.53125 -3.519531 5.609375 -3.273438 5.765625 -3.109375 C 5.921875 -2.941406 6.140625 -2.859375 6.421875 -2.859375 C 6.660156 -2.859375 7.054688 -2.957031 7.609375 -3.15625 Z M 8.296875 -0.5 "/></g></g></g><g fill="#ffffff" fill-opacity="1"><g transform="translate(332.9648, 217.512876)"><g><path d="M 5.859375 -10.5625 C 7.566406 -10.5625 8.898438 -10.050781 9.859375 -9.03125 C 10.816406 -8.019531 11.296875 -6.628906 11.296875 -4.859375 C 11.296875 -4.597656 11.289062 -4.398438 11.28125 -4.265625 L 4.265625 -4.265625 C 4.421875 -3.773438 4.675781 -3.394531 5.03125 -3.125 C 5.382812 -2.851562 5.804688 -2.71875 6.296875 -2.71875 C 7.109375 -2.71875 7.875 -3.050781 8.59375 -3.71875 L 10.609375 -1.75 C 10.054688 -1.132812 9.390625 -0.664062 8.609375 -0.34375 C 7.828125 -0.0195312 6.953125 0.140625 5.984375 0.140625 C 4.828125 0.140625 3.828125 -0.078125 2.984375 -0.515625 C 2.140625 -0.960938 1.488281 -1.582031 1.03125 -2.375 C 0.582031 -3.175781 0.359375 -4.109375 0.359375 -5.171875 C 0.359375 -6.242188 0.585938 -7.1875 1.046875 -8 C 1.515625 -8.8125 2.160156 -9.441406 2.984375 -9.890625 C 3.816406 -10.335938 4.773438 -10.5625 5.859375 -10.5625 Z M 7.46875 -6.171875 C 7.476562 -6.679688 7.335938 -7.101562 7.046875 -7.4375 C 6.753906 -7.769531 6.375 -7.9375 5.90625 -7.9375 C 5.457031 -7.9375 5.082031 -7.773438 4.78125 -7.453125 C 4.488281 -7.128906 4.289062 -6.703125 4.1875 -6.171875 Z M 7.46875 -6.171875 "/></g></g></g><g fill="#ffffff" fill-opacity="1"><g transform="translate(15.217108, 186.976965)"><g><path d="M 3.421875 0 L 3.421875 -40.640625 L 36.640625 -40.640625 L 36.640625 -31.359375 L 15.484375 -31.359375 L 15.484375 -24.984375 L 34.671875 -24.984375 L 34.671875 -15.703125 L 15.484375 -15.703125 L 15.484375 -9.28125 L 37.21875 -9.28125 L 37.21875 0 Z M 3.421875 0 "/></g></g></g><g fill="#ffffff" fill-opacity="1"><g transform="translate(58.059193, 186.976965)"><g><path d="M 3.421875 0 L 3.421875 -40.640625 L 15.484375 -40.640625 L 15.484375 -10.09375 L 32.515625 -10.09375 L 32.515625 0 Z M 3.421875 0 "/></g></g></g><g fill="#ffffff" fill-opacity="1"><g transform="translate(94.582251, 186.976965)"><g/></g></g><g fill="#ffffff" fill-opacity="1"><g transform="translate(113.48159, 186.976965)"><g><path d="M 3.421875 0 L 3.421875 -40.640625 L 34.953125 -40.640625 L 34.953125 -31.359375 L 15.484375 -31.359375 L 15.484375 -23.25 L 33.5625 -23.25 L 33.5625 -13.96875 L 15.484375 -13.96875 L 15.484375 0 Z M 3.421875 0 "/></g></g></g><g fill="#ffffff" fill-opacity="1"><g transform="translate(152.613423, 186.976965)"><g><path d="M 14.84375 -16.8125 C 14.84375 -14.53125 15.5 -12.691406 16.8125 -11.296875 C 18.125 -9.910156 19.765625 -9.21875 21.734375 -9.21875 C 23.671875 -9.21875 25.253906 -9.898438 26.484375 -11.265625 C 27.722656 -12.640625 28.34375 -14.488281 28.34375 -16.8125 L 28.34375 -40.640625 L 40.40625 -40.640625 L 40.40625 -16.8125 C 40.40625 -13.257812 39.640625 -10.15625 38.109375 -7.5 C 36.585938 -4.851562 34.414062 -2.804688 31.59375 -1.359375 C 28.769531 0.0859375 25.484375 0.8125 21.734375 0.8125 C 17.953125 0.8125 14.628906 0.0859375 11.765625 -1.359375 C 8.910156 -2.804688 6.695312 -4.851562 5.125 -7.5 C 3.5625 -10.15625 2.78125 -13.257812 2.78125 -16.8125 L 2.78125 -40.640625 L 14.84375 -40.640625 Z M 14.84375 -16.8125 "/></g></g></g><g fill="#ffffff" fill-opacity="1"><g transform="translate(199.049814, 186.976965)"><g><path d="M 3.421875 0 L 3.421875 -40.640625 L 36.640625 -40.640625 L 36.640625 -31.359375 L 15.484375 -31.359375 L 15.484375 -24.984375 L 34.671875 -24.984375 L 34.671875 -15.703125 L 15.484375 -15.703125 L 15.484375 -9.28125 L 37.21875 -9.28125 L 37.21875 0 Z M 3.421875 0 "/></g></g></g><g fill="#ffffff" fill-opacity="1"><g transform="translate(241.89189, 186.976965)"><g><path d="M 29.96875 -21.046875 L 40.34375 -21.046875 L 40.34375 -4.515625 C 38.144531 -2.972656 35.421875 -1.695312 32.171875 -0.6875 C 28.921875 0.3125 25.847656 0.8125 22.953125 0.8125 C 18.816406 0.8125 15.085938 -0.101562 11.765625 -1.9375 C 8.441406 -3.78125 5.832031 -6.300781 3.9375 -9.5 C 2.039062 -12.707031 1.09375 -16.320312 1.09375 -20.34375 C 1.09375 -24.320312 2.066406 -27.914062 4.015625 -31.125 C 5.972656 -34.332031 8.679688 -36.84375 12.140625 -38.65625 C 15.597656 -40.476562 19.472656 -41.390625 23.765625 -41.390625 C 26.859375 -41.390625 29.953125 -40.828125 33.046875 -39.703125 C 36.140625 -38.585938 38.765625 -37.0625 40.921875 -35.125 L 34.078125 -26.890625 C 32.691406 -28.242188 31.0625 -29.328125 29.1875 -30.140625 C 27.3125 -30.953125 25.484375 -31.359375 23.703125 -31.359375 C 21.773438 -31.359375 20.023438 -30.875 18.453125 -29.90625 C 16.890625 -28.945312 15.664062 -27.625 14.78125 -25.9375 C 13.894531 -24.257812 13.453125 -22.394531 13.453125 -20.34375 C 13.453125 -18.257812 13.90625 -16.363281 14.8125 -14.65625 C 15.71875 -12.957031 16.960938 -11.625 18.546875 -10.65625 C 20.128906 -9.695312 21.890625 -9.21875 23.828125 -9.21875 C 25.566406 -9.21875 27.613281 -9.773438 29.96875 -10.890625 Z M 29.96875 -21.046875 "/></g></g></g></svg>